<svg width="260" height="37" viewBox="0 0 260 37" fill="none" xmlns="http://www.w3.org/2000/svg">
<path d="M9.5 34.389C26.7192 34.389 26.7192 34.1421 43.9286 34.1421C61.1478 34.1421 61.1478 35.1791 78.3571 35.1791C95.5763 35.1791 95.5763 34.71 112.786 34.71C130.005 34.71 130.005 35.5001 147.214 35.5001C164.433 35.5001 164.433 35.5001 181.643 35.5001C198.862 35.5001 198.862 34.4878 216.071 34.4878C233.291 34.4878 233.291 35.3149 250.5 35.3149" stroke="#5100FF" stroke-width="3" stroke-miterlimit="10" stroke-linecap="round" stroke-linejoin="round"/>
<path d="M37.476 24.456C37.1387 24.94 36.6473 25.182 36.002 25.182C35.4153 25.182 34.8067 24.9913 34.176 24.61C33.604 24.2727 33.2813 23.9427 33.208 23.62C33.1787 23.5027 33.164 23.3927 33.164 23.29C33.164 23.0553 33.2593 22.7913 33.45 22.498C33.6553 22.2047 33.7507 21.948 33.736 21.728L33.076 14.336L29.292 22.872C29.248 22.9893 29.226 23.1287 29.226 23.29C29.226 23.4073 29.2407 23.5907 29.27 23.84C29.314 24.0893 29.336 24.28 29.336 24.412C29.336 24.7493 29.204 25.006 28.94 25.182C28.5587 25.446 28.1113 25.578 27.598 25.578C27.0847 25.578 26.6153 25.4387 26.19 25.16C25.7793 24.896 25.5227 24.544 25.42 24.104C25.3907 23.972 25.376 23.8547 25.376 23.752C25.376 23.6493 25.3907 23.5247 25.42 23.378C25.4493 23.2313 25.464 23.1213 25.464 23.048C25.464 22.96 25.4493 22.872 25.42 22.784L22.252 14.336L22.56 22.3C22.5747 22.5053 22.626 22.7987 22.714 23.18C22.802 23.5467 22.846 23.818 22.846 23.994C22.846 24.5367 22.4427 24.962 21.636 25.27C21.5333 25.2993 21.4087 25.314 21.262 25.314C20.8073 25.314 20.338 25.16 19.854 24.852C19.2967 24.5147 18.9373 24.0747 18.776 23.532C18.7467 23.444 18.732 23.3633 18.732 23.29C18.732 23.1433 18.82 22.982 18.996 22.806C19.172 22.6153 19.26 22.4467 19.26 22.3L18.996 9.76C18.996 9.55467 18.9227 9.298 18.776 8.99C18.6293 8.66733 18.556 8.42533 18.556 8.264C18.556 8.01467 18.688 7.75067 18.952 7.472C19.216 7.17867 19.678 7.032 20.338 7.032C21.306 7.032 22.076 7.26667 22.648 7.736C22.9707 8 23.132 8.27867 23.132 8.572C23.132 8.616 23.1247 8.682 23.11 8.77C23.11 8.858 23.11 8.924 23.11 8.968C23.11 9.1 23.132 9.21733 23.176 9.32L27.532 19.88L32.416 8.66C32.4747 8.528 32.504 8.374 32.504 8.198C32.504 8.13933 32.4967 8.05133 32.482 7.934C32.482 7.81667 32.482 7.72867 32.482 7.67C32.482 7.33267 32.636 7.04667 32.944 6.812C33.1933 6.62133 33.5233 6.526 33.934 6.526C34.5647 6.526 35.1733 6.71667 35.76 7.098C36.3613 7.47933 36.6547 7.912 36.64 8.396C36.6253 8.63067 36.5153 8.82867 36.31 8.99C36.1047 9.13667 36.0093 9.276 36.024 9.408L36.948 22.388C36.9627 22.5347 37.08 22.7913 37.3 23.158C37.52 23.51 37.63 23.796 37.63 24.016C37.63 24.1627 37.5787 24.3093 37.476 24.456ZM45.2131 13.148C46.1958 14.1453 46.6871 15.8247 46.6871 18.186C46.6871 20.0193 46.3425 21.5813 45.6531 22.872C44.8758 24.324 43.8051 25.05 42.4411 25.05C41.0918 25.05 40.0505 24.3973 39.3171 23.092C38.6718 21.948 38.3491 20.496 38.3491 18.736C38.3491 17.1813 38.5985 15.788 39.0971 14.556C39.6251 13.236 40.2998 12.4587 41.1211 12.224C41.5465 12.1067 41.9865 12.048 42.4411 12.048C43.5705 12.048 44.4945 12.4147 45.2131 13.148ZM42.7051 14.204C42.2211 14.16 41.8031 14.6147 41.4511 15.568C41.1431 16.4333 40.9891 17.3427 40.9891 18.296C40.9891 19.6747 41.0478 20.65 41.1651 21.222C41.3705 22.2487 41.7958 22.8133 42.4411 22.916C42.8518 22.9747 43.2331 22.41 43.5851 21.222C43.9225 20.078 44.0911 18.8533 44.0911 17.548C44.0911 15.4067 43.6291 14.292 42.7051 14.204ZM56.8119 13.28C56.7533 13.588 56.4746 13.8007 55.9759 13.918C55.3893 14.0647 55.0153 14.2333 54.8539 14.424L51.2679 18.56V21.904C51.2679 22.2267 51.3559 22.5567 51.5319 22.894C51.7226 23.2167 51.8179 23.466 51.8179 23.642C51.8179 23.818 51.7666 24.016 51.6639 24.236C51.4146 24.7933 50.9086 25.072 50.1459 25.072C49.6179 25.072 49.1999 24.9033 48.8919 24.566C48.6866 24.346 48.5839 24.0673 48.5839 23.73C48.5839 23.6127 48.5986 23.422 48.6279 23.158C48.6573 22.894 48.6719 22.6813 48.6719 22.52V14.292C48.6719 14.16 48.6133 13.9987 48.4959 13.808C48.3786 13.6173 48.3199 13.4633 48.3199 13.346C48.3199 13.258 48.3493 13.1553 48.4079 13.038C48.5986 12.686 49.1926 12.51 50.1899 12.51C50.9673 12.51 51.4073 12.6933 51.5099 13.06C51.5539 13.2067 51.5759 13.3313 51.5759 13.434C51.5759 13.5953 51.5173 13.72 51.3999 13.808C51.2826 13.896 51.2239 13.984 51.2239 14.072L51.2679 14.864L53.1599 12.862C53.3799 12.6127 53.6073 12.3633 53.8419 12.114C54.0913 11.8647 54.3773 11.7253 54.6999 11.696C55.1986 11.652 55.6753 11.762 56.1299 12.026C56.5993 12.29 56.8339 12.6347 56.8339 13.06C56.8339 13.1333 56.8266 13.2067 56.8119 13.28ZM64.7734 22.19C64.656 22.7473 64.26 23.3413 63.5854 23.972C63.4827 24.1333 63.0794 24.346 62.3754 24.61C61.5687 24.918 60.872 25.05 60.2854 25.006C59.1854 24.9327 58.32 24.302 57.6894 23.114C57.1174 22.014 56.8314 20.6647 56.8314 19.066C56.8314 17.3353 57.154 15.8173 57.7994 14.512C58.518 13.0747 59.4787 12.268 60.6814 12.092C60.916 12.0627 61.1434 12.048 61.3634 12.048C63.1087 12.048 64.0694 13.1187 64.2454 15.26C64.3334 16.2427 63.9447 17.3133 63.0794 18.472C62.1407 19.748 60.938 20.6427 59.4714 21.156C59.6327 21.7427 59.7574 22.124 59.8454 22.3C60.0507 22.6667 60.3294 22.85 60.6814 22.85C61.0187 22.85 61.378 22.718 61.7594 22.454C62.082 22.234 62.302 22.0213 62.4194 21.816C62.478 21.7867 62.5367 21.6253 62.5954 21.332C62.654 21.024 62.808 20.804 63.0574 20.672C63.1454 20.628 63.248 20.606 63.3654 20.606C63.7174 20.606 64.0547 20.782 64.3774 21.134C64.7147 21.4713 64.8467 21.8233 64.7734 22.19ZM61.3194 14.446C60.7327 14.446 60.256 14.864 59.8894 15.7C59.4054 16.8147 59.2074 17.9147 59.2954 19C59.9847 18.78 60.6227 18.2667 61.2094 17.46C61.796 16.6533 62.0894 15.9347 62.0894 15.304C62.0894 14.732 61.8327 14.446 61.3194 14.446ZM79.9508 7.868C80.1708 8.19067 80.2808 8.62333 80.2808 9.166C80.2808 10.442 79.5841 12.4073 78.1908 15.062C76.7388 17.8633 75.5508 19.264 74.6268 19.264C74.3921 19.264 74.2161 19.132 74.0988 18.868C74.0548 19.2053 74.0328 19.6307 74.0328 20.144C74.0328 21.024 74.0841 22.036 74.1868 23.18C74.1868 23.2827 74.2234 23.4513 74.2968 23.686C74.3701 23.9207 74.4068 24.0967 74.4068 24.214C74.4068 24.4927 74.2161 24.7273 73.8348 24.918C73.6588 25.006 73.4241 25.05 73.1308 25.05C72.6468 25.05 72.1921 24.94 71.7668 24.72C71.2828 24.4853 71.0041 24.1773 70.9308 23.796C70.9161 23.6933 70.9088 23.6053 70.9088 23.532C70.9088 23.312 70.9821 23.114 71.1288 22.938C71.2901 22.7473 71.3708 22.6227 71.3708 22.564L70.9748 8.308C70.9748 8.264 70.9528 8.176 70.9088 8.044C70.8648 7.912 70.8428 7.80933 70.8428 7.736C70.8428 7.472 71.0334 7.26667 71.4148 7.12C71.7081 7.00267 72.0161 6.944 72.3388 6.944C72.4414 6.944 72.8521 6.988 73.5708 7.076C73.6588 7.076 74.0914 6.922 74.8688 6.614C75.6608 6.29133 76.3574 6.13 76.9588 6.13C78.1321 6.13 79.1294 6.70933 79.9508 7.868ZM76.6728 8.748C76.3208 8.748 75.8661 8.93867 75.3088 9.32C74.7661 9.68667 74.2894 10.112 73.8788 10.596L73.9668 15.656C74.6121 15.172 75.3088 14.204 76.0568 12.752C76.8194 11.2853 77.2008 10.1707 77.2008 9.408C77.2008 8.968 77.0248 8.748 76.6728 8.748ZM88.9311 13.28C88.8724 13.588 88.5937 13.8007 88.0951 13.918C87.5084 14.0647 87.1344 14.2333 86.9731 14.424L83.3871 18.56V21.904C83.3871 22.2267 83.4751 22.5567 83.6511 22.894C83.8417 23.2167 83.9371 23.466 83.9371 23.642C83.9371 23.818 83.8857 24.016 83.7831 24.236C83.5337 24.7933 83.0277 25.072 82.2651 25.072C81.7371 25.072 81.3191 24.9033 81.0111 24.566C80.8057 24.346 80.7031 24.0673 80.7031 23.73C80.7031 23.6127 80.7177 23.422 80.7471 23.158C80.7764 22.894 80.7911 22.6813 80.7911 22.52V14.292C80.7911 14.16 80.7324 13.9987 80.6151 13.808C80.4977 13.6173 80.4391 13.4633 80.4391 13.346C80.4391 13.258 80.4684 13.1553 80.5271 13.038C80.7177 12.686 81.3117 12.51 82.3091 12.51C83.0864 12.51 83.5264 12.6933 83.6291 13.06C83.6731 13.2067 83.6951 13.3313 83.6951 13.434C83.6951 13.5953 83.6364 13.72 83.5191 13.808C83.4017 13.896 83.3431 13.984 83.3431 14.072L83.3871 14.864L85.2791 12.862C85.4991 12.6127 85.7264 12.3633 85.9611 12.114C86.2104 11.8647 86.4964 11.7253 86.8191 11.696C87.3177 11.652 87.7944 11.762 88.2491 12.026C88.7184 12.29 88.9531 12.6347 88.9531 13.06C88.9531 13.1333 88.9457 13.2067 88.9311 13.28ZM96.1526 13.148C97.1352 14.1453 97.6266 15.8247 97.6266 18.186C97.6266 20.0193 97.2819 21.5813 96.5926 22.872C95.8152 24.324 94.7446 25.05 93.3806 25.05C92.0312 25.05 90.9899 24.3973 90.2566 23.092C89.6112 21.948 89.2886 20.496 89.2886 18.736C89.2886 17.1813 89.5379 15.788 90.0366 14.556C90.5646 13.236 91.2392 12.4587 92.0606 12.224C92.4859 12.1067 92.9259 12.048 93.3806 12.048C94.5099 12.048 95.4339 12.4147 96.1526 13.148ZM93.6446 14.204C93.1606 14.16 92.7426 14.6147 92.3906 15.568C92.0826 16.4333 91.9286 17.3427 91.9286 18.296C91.9286 19.6747 91.9872 20.65 92.1046 21.222C92.3099 22.2487 92.7352 22.8133 93.3806 22.916C93.7912 22.9747 94.1726 22.41 94.5246 21.222C94.8619 20.078 95.0306 18.8533 95.0306 17.548C95.0306 15.4067 94.5686 14.292 93.6446 14.204ZM102.407 11.3C102.304 11.5347 102.018 11.652 101.549 11.652C101.212 11.652 100.889 11.5787 100.581 11.432C100.185 11.256 99.9869 11.0213 99.9869 10.728C99.9869 10.64 100.009 10.5153 100.053 10.354C100.097 10.1927 100.119 10.0827 100.119 10.024C100.119 9.936 100.104 9.77467 100.075 9.54C100.046 9.30533 100.031 9.12933 100.031 9.012C100.031 8.67467 100.119 8.42533 100.295 8.264C100.53 8.02933 100.838 7.912 101.219 7.912C101.527 7.912 101.82 8.00733 102.099 8.198C102.378 8.38867 102.517 8.638 102.517 8.946C102.517 9.078 102.473 9.29067 102.385 9.584C102.297 9.87733 102.26 10.0973 102.275 10.244C102.275 10.376 102.304 10.5153 102.363 10.662C102.436 10.8087 102.473 10.926 102.473 11.014C102.473 11.102 102.451 11.1973 102.407 11.3ZM102.407 15.81C102.407 20.3713 102.414 21.9407 102.429 20.518C102.4 22.718 102.209 24.4193 101.857 25.622C101.388 27.25 100.632 28.13 99.5909 28.262C99.1363 28.3207 98.6376 28.218 98.0949 27.954C97.5523 27.7047 97.2809 27.4113 97.2809 27.074C97.2809 26.9567 97.3249 26.8393 97.4129 26.722C97.5743 26.5167 97.8456 26.4433 98.2269 26.502C98.5936 26.5607 98.8429 26.546 98.9749 26.458C99.4443 26.1353 99.6789 23.488 99.6789 18.516C99.6789 17.3573 99.6643 15.964 99.6349 14.336C99.6349 14.204 99.5909 13.9767 99.5029 13.654C99.4149 13.3167 99.3709 13.0673 99.3709 12.906C99.3709 12.3927 99.7816 12.136 100.603 12.136C101.307 12.136 101.82 12.2973 102.143 12.62C102.407 12.884 102.539 13.2653 102.539 13.764C102.539 13.9987 102.517 14.3433 102.473 14.798C102.429 15.238 102.407 15.5753 102.407 15.81ZM112.383 22.19C112.265 22.7473 111.869 23.3413 111.195 23.972C111.092 24.1333 110.689 24.346 109.985 24.61C109.178 24.918 108.481 25.05 107.895 25.006C106.795 24.9327 105.929 24.302 105.299 23.114C104.727 22.014 104.441 20.6647 104.441 19.066C104.441 17.3353 104.763 15.8173 105.409 14.512C106.127 13.0747 107.088 12.268 108.291 12.092C108.525 12.0627 108.753 12.048 108.973 12.048C110.718 12.048 111.679 13.1187 111.855 15.26C111.943 16.2427 111.554 17.3133 110.689 18.472C109.75 19.748 108.547 20.6427 107.081 21.156C107.242 21.7427 107.367 22.124 107.455 22.3C107.66 22.6667 107.939 22.85 108.291 22.85C108.628 22.85 108.987 22.718 109.369 22.454C109.691 22.234 109.911 22.0213 110.029 21.816C110.087 21.7867 110.146 21.6253 110.205 21.332C110.263 21.024 110.417 20.804 110.667 20.672C110.755 20.628 110.857 20.606 110.975 20.606C111.327 20.606 111.664 20.782 111.987 21.134C112.324 21.4713 112.456 21.8233 112.383 22.19ZM108.929 14.446C108.342 14.446 107.865 14.864 107.499 15.7C107.015 16.8147 106.817 17.9147 106.905 19C107.594 18.78 108.232 18.2667 108.819 17.46C109.405 16.6533 109.699 15.9347 109.699 15.304C109.699 14.732 109.442 14.446 108.929 14.446ZM121.632 20.848C121.617 21.1707 121.478 21.5007 121.214 21.838C120.803 22.322 120.539 22.6887 120.422 22.938C119.498 24.346 118.544 25.05 117.562 25.05C116.403 25.05 115.501 24.4633 114.856 23.29C114.284 22.2193 113.998 20.87 113.998 19.242C113.998 17.3793 114.35 15.7587 115.054 14.38C115.831 12.8547 116.836 12.092 118.068 12.092C119.036 12.092 119.82 12.6273 120.422 13.698C120.92 14.6073 121.17 15.5973 121.17 16.668C121.17 16.9613 121.148 17.218 121.104 17.438C121.001 17.9367 120.583 18.186 119.85 18.186C119.278 18.186 118.838 18.0247 118.53 17.702C118.383 17.5407 118.31 17.1667 118.31 16.58C118.31 16.4333 118.317 16.2207 118.332 15.942C118.332 15.6487 118.332 15.436 118.332 15.304C118.332 14.644 118.214 14.314 117.98 14.314C117.73 14.314 117.466 15.04 117.188 16.492C116.909 17.9293 116.77 19.2787 116.77 20.54C116.77 22.0067 116.99 22.74 117.43 22.74C118.002 22.74 118.427 22.278 118.706 21.354C118.823 21.222 118.889 20.958 118.904 20.562C118.904 20.21 118.992 19.9827 119.168 19.88C119.344 19.7627 119.6 19.704 119.938 19.704C120.378 19.704 120.759 19.7993 121.082 19.99C121.463 20.21 121.646 20.496 121.632 20.848ZM130.664 14.512C130.546 14.512 130.363 14.468 130.114 14.38C129.864 14.2773 129.674 14.226 129.542 14.226C129.439 14.226 129.336 14.248 129.234 14.292L128.42 14.71V22.234C128.42 22.5127 128.566 22.872 128.86 23.312C129.168 23.752 129.292 24.104 129.234 24.368C129.16 24.6907 128.94 24.9473 128.574 25.138C128.222 25.3287 127.84 25.424 127.43 25.424C126.652 25.424 126.117 25.0793 125.824 24.39C125.736 24.1847 125.684 23.532 125.67 22.432C125.655 21.6987 125.662 20.5547 125.692 19C125.721 17.24 125.736 16.1253 125.736 15.656C125.648 15.6853 125.501 15.788 125.296 15.964C125.09 16.1253 124.885 16.206 124.68 16.206C124.518 16.206 124.313 16.162 124.064 16.074C123.037 15.722 122.524 15.3627 122.524 14.996C122.524 14.908 122.546 14.8127 122.59 14.71C122.692 14.4753 122.883 14.3433 123.162 14.314C123.587 14.2553 123.844 14.204 123.932 14.16C124.269 14.028 124.885 13.7127 125.78 13.214V11.3C125.78 11.1533 125.736 10.9627 125.648 10.728C125.574 10.4787 125.538 10.2953 125.538 10.178C125.538 10.046 125.574 9.92133 125.648 9.804C126.029 9.21733 126.542 8.924 127.188 8.924C127.936 8.924 128.464 9.21733 128.772 9.804C128.889 10.0387 128.948 10.2293 128.948 10.376C128.948 10.552 128.86 10.7353 128.684 10.926C128.508 11.1167 128.42 11.2927 128.42 11.454V12.532C128.684 12.4147 128.977 12.2167 129.3 11.938C129.549 11.7327 129.762 11.63 129.938 11.63C130.011 11.63 130.092 11.6447 130.18 11.674C131.104 11.9233 131.566 12.4807 131.566 13.346C131.566 13.6247 131.478 13.8887 131.302 14.138C131.14 14.3873 130.928 14.512 130.664 14.512Z" fill="#5100FF"/>
<path d="M235.78 15.7221C237.274 17.1169 237.833 18.3797 237.833 18.4998C237.833 18.6808 236.895 20.0037 234.9 21.8332C233.832 22.8127 231.38 24.8887 230.793 25.1665L230.5 25.1665C232.651 23.3147 237.401 19.6109 237.167 19.1665C236.873 18.6109 235.475 17.0546 233.833 15.4998C233.247 14.9443 230.915 12.1109 230.5 12.1109C230.5 12.1109 230.696 11.8332 230.793 11.8332C230.793 11.8332 233.819 13.8913 235.78 15.7221Z" stroke="#5100FF" stroke-width="3" stroke-miterlimit="10" stroke-linecap="round" stroke-linejoin="round"/>
<path d="M1.5 1.74476C17.5551 1.74476 17.5551 2.5 33.6193 2.5C49.6835 2.5 49.6835 2.3042 65.7386 2.3042C81.8028 2.3042 81.8028 1.65385 97.8578 1.65385C113.922 1.65385 113.922 2.26224 129.986 2.26224C146.05 2.26224 146.05 2.12238 162.115 2.12238C178.179 2.12238 178.179 1.94756 194.243 1.94756C210.307 1.94756 210.307 1.96854 226.372 1.96854C242.436 1.96854 242.436 1.5 258.5 1.5" stroke="#5100FF" stroke-width="3" stroke-miterlimit="10" stroke-linecap="round" stroke-linejoin="round"/>
</svg>
