<svg width="132" height="28" viewBox="0 0 132 28" fill="none" xmlns="http://www.w3.org/2000/svg">
<path d="M13.2088 21.735C13.2272 21.8222 13.2379 21.9025 13.2411 21.9758C13.2599 22.4154 13.0194 22.8005 12.5198 23.1312C12.0195 23.4472 11.4909 23.6177 10.9342 23.6427C10.5972 23.6578 10.3233 23.604 10.1125 23.4813C9.96223 23.3999 9.82316 23.2373 9.6953 22.9935C9.58147 22.7343 9.45674 22.5637 9.32111 22.4817L4.32495 19.4462L4.60918 21.4595C4.62821 21.5615 4.74718 21.769 4.96609 22.0822C5.19965 22.3947 5.32112 22.6609 5.33051 22.8807C5.34429 23.203 5.152 23.5126 4.75365 23.8094C4.51208 23.9964 4.20082 24.0984 3.81987 24.1155C3.27774 24.1398 2.76599 24.0159 2.2846 23.7438C1.75926 23.4738 1.43559 23.1139 1.31362 22.6642C1.29521 22.577 1.28475 22.504 1.28225 22.4454C1.27348 22.2403 1.3612 22.0602 1.54541 21.9051C1.74365 21.7347 1.83995 21.5836 1.83432 21.4517L0.595573 8.95464C0.57278 8.76481 0.481547 8.51931 0.321876 8.21816C0.161579 7.90235 0.0782988 7.67118 0.0720362 7.52464C0.0557535 7.14366 0.291686 6.82478 0.779833 6.56801C1.18132 6.34449 1.59452 6.22321 2.01943 6.20418C2.29781 6.19171 2.54145 6.22484 2.75033 6.30357C2.95859 6.36765 3.10311 6.48596 3.18389 6.65852C3.26403 6.81643 3.35539 6.89308 3.45795 6.88849C3.47323 6.90248 3.91323 6.72128 4.77794 6.34487C5.7873 5.91794 6.68025 5.68709 7.45681 5.6523C8.58501 5.60176 9.51034 5.95671 10.2328 6.71714C10.4327 6.92841 10.5411 7.23186 10.558 7.6275C10.6037 8.69719 10.0528 10.234 8.90533 12.2381C7.81146 14.1222 6.6653 15.6417 5.46685 16.7965L11.3063 20.4989C11.3215 20.5129 11.6953 20.6723 12.4277 20.9772C12.8461 21.1493 13.1064 21.4019 13.2088 21.735ZM6.73531 8.34928C6.41297 8.36372 5.9133 8.69441 5.23631 9.34136C5.0948 9.46515 4.57428 9.99497 3.67476 10.9308L3.79895 14.8672C4.66479 13.8301 5.43802 12.687 6.11864 11.438C6.79863 10.1743 7.12735 9.27867 7.10481 8.75115C7.09291 8.47274 6.96974 8.33878 6.73531 8.34928ZM24.0582 21.7775C23.8691 22.5054 23.3423 22.8886 22.4779 22.9274C22.1848 22.9405 21.9482 22.8997 21.768 22.805C21.5267 22.6543 21.3517 22.3392 21.2431 21.8596C21.0316 21.0322 20.8279 20.388 20.6321 19.927C20.6226 20.7349 20.2181 21.5751 19.4186 22.4478C18.6185 23.3058 17.7936 23.7538 16.9437 23.7919C15.8741 23.8398 15.1038 23.1623 14.6328 21.7593C14.4638 21.2383 14.3692 20.7434 14.3492 20.2745C14.2909 18.9117 14.9371 17.7156 16.2877 16.6861C17.4018 15.9609 18.5235 15.2427 19.6528 14.5314C19.7007 14.2797 19.7197 14.0366 19.7097 13.8021C19.6903 13.3479 19.5545 13.0897 19.3023 13.0276C19.0494 12.9508 18.8351 12.9164 18.6593 12.9243C18.3516 12.938 18.0995 13.0521 17.9032 13.2664C17.7208 13.4655 17.5455 13.6568 17.3772 13.8405C17.2064 13.9656 16.9909 14.2469 16.7307 14.6843C16.5253 15.0312 16.2914 15.2252 16.0289 15.2663C15.6498 15.3273 15.2998 15.2109 14.979 14.9169C14.6582 14.623 14.489 14.2709 14.4714 13.8606C14.4614 13.6261 14.5109 13.411 14.62 13.2153C14.9332 12.6434 15.418 12.1372 16.0745 11.6967C17.0738 11.0353 18.3427 10.6702 19.8812 10.6013C20.8629 10.5573 21.5569 10.996 21.9633 11.9174C22.2246 12.537 22.4509 13.7087 22.642 15.4325C22.8634 17.522 23.09 19.0461 23.3218 20.0047C23.3593 20.1939 23.4942 20.4301 23.7265 20.7133C23.9588 20.9965 24.0796 21.248 24.089 21.4678C24.0934 21.5704 24.0831 21.6736 24.0582 21.7775ZM20.0029 16.5417C19.5734 16.7959 19.1442 17.0574 18.7153 17.3262C18.301 17.5943 17.9195 17.9417 17.5707 18.3684C17.0689 18.9928 16.8271 19.5175 16.8453 19.9424C16.8603 20.2941 17.0078 20.6546 17.2879 21.0237C17.4431 21.2223 17.6087 21.3177 17.7845 21.3098C18.1655 21.2927 18.5576 20.8494 18.9608 19.9798C19.3787 19.1096 19.7261 17.9636 20.0029 16.5417ZM35.7523 20.7692C35.7368 21.0929 35.5362 21.3808 35.1506 21.633C34.7644 21.8705 34.3296 22.0001 33.8461 22.0217C33.1281 22.0539 32.6276 21.8488 32.3444 21.4063C32.2687 16.8879 32.0392 14.6079 31.6557 14.5663C31.2869 14.5241 30.4796 16.5863 29.2337 20.7529C29.2525 21.1925 29.2712 21.6321 29.29 22.0717C29.2979 22.5998 29.1674 22.9801 28.8984 23.2123C28.644 23.444 28.363 23.5666 28.0553 23.5804C27.5279 23.6041 26.9516 23.3436 26.3264 22.799C26.1443 22.6604 26.0015 21.551 25.8979 19.4709C25.967 20.7451 25.8732 18.3782 25.6165 12.3704C25.6108 12.2385 25.5887 12.0633 25.55 11.8448C25.5106 11.6117 25.4888 11.4438 25.4844 11.3412C25.4725 11.0628 25.5354 10.8178 25.6732 10.6061C25.8377 10.3344 26.1105 10.1901 26.4914 10.173C26.887 10.1553 27.3026 10.2615 27.7382 10.4915C28.1877 10.7063 28.4612 10.9216 28.5585 11.1375C28.6234 11.2814 28.6589 11.4266 28.6652 11.5731C28.6714 11.7197 28.6216 11.9274 28.5157 12.1965C28.4097 12.4655 28.3605 12.6879 28.368 12.8637L28.4977 15.897C29.3368 13.8921 29.9774 12.5641 30.4193 11.913C31.2081 10.7912 32.1316 10.2434 33.1896 10.2694C33.8215 10.2851 34.2935 10.8512 34.6054 11.9677C34.8469 12.8084 35.0106 14.0637 35.0967 15.7335C35.153 17.0523 35.2094 18.3711 35.2658 19.6899C35.2995 19.7911 35.4099 19.9697 35.5969 20.2256C35.7058 20.3675 35.7576 20.5487 35.7523 20.7692ZM39.9816 8.77593C39.8891 9.01497 39.6084 9.145 39.1395 9.166C38.8025 9.1811 38.477 9.12227 38.1631 8.98952C37.76 8.8314 37.5521 8.60581 37.5396 8.31274C37.5358 8.22483 37.5525 8.09929 37.5896 7.93613C37.6266 7.77298 37.6439 7.66209 37.6414 7.60348C37.6377 7.51556 37.6161 7.35503 37.5768 7.12189C37.5375 6.88875 37.5153 6.71357 37.5103 6.59634C37.4959 6.25931 37.5732 6.00627 37.7421 5.83721C37.9665 5.59226 38.2692 5.46125 38.6501 5.44418C38.9578 5.4304 39.2549 5.51252 39.5415 5.69054C39.828 5.86856 39.9778 6.11143 39.991 6.41915C39.9966 6.55103 39.9617 6.76547 39.8864 7.06248C39.811 7.35948 39.7837 7.58092 39.8046 7.7268C39.8103 7.85868 39.8455 7.99657 39.9104 8.14048C39.9899 8.28373 40.0316 8.39932 40.0353 8.48724C40.0391 8.57515 40.0212 8.67139 39.9816 8.77593ZM40.1742 13.2818C40.3689 17.839 40.4433 19.4066 40.3972 17.9845C40.4618 20.1838 40.344 21.8922 40.0437 23.1095C39.6443 24.757 38.9273 25.67 37.8927 25.8485C37.441 25.9274 36.9384 25.8472 36.385 25.6077C35.8323 25.3829 35.5487 25.102 35.5343 24.7649C35.5293 24.6477 35.5682 24.5285 35.6511 24.4073C35.8035 24.195 36.0715 24.1096 36.4549 24.1511C36.8237 24.1933 37.0722 24.1675 37.2003 24.0737C37.6554 23.7303 37.7768 21.0749 37.5645 16.1074C37.515 14.9498 37.4408 13.5584 37.342 11.9332C37.3364 11.8013 37.2827 11.5762 37.181 11.2577C37.0787 10.9246 37.0241 10.6775 37.0172 10.5163C36.9953 10.0035 37.3946 9.72865 38.2151 9.69189C38.9184 9.66039 39.4381 9.79861 39.7742 10.1065C40.0492 10.3585 40.1974 10.7336 40.2187 11.2318C40.2287 11.4662 40.2214 11.8116 40.1969 12.2678C40.1717 12.7094 40.1642 13.0474 40.1742 13.2818ZM50.4124 19.2096C50.319 19.7717 49.9487 20.3828 49.3017 21.0431C49.206 21.2089 48.8122 21.4394 48.1201 21.7347C47.3274 22.0785 46.6371 22.2416 46.0491 22.2238C44.9471 22.1998 44.0557 21.6084 43.375 20.4497C42.7566 19.3763 42.4132 18.041 42.345 16.4438C42.2711 14.7147 42.5286 13.1837 43.1175 11.8507C43.7741 10.3825 44.6994 9.53356 45.8933 9.3039C46.1265 9.2641 46.353 9.23927 46.5728 9.22942C48.3163 9.15132 49.3218 10.178 49.589 12.3095C49.7189 13.2874 49.3763 14.3744 48.5613 15.5708C47.6781 16.8876 46.5148 17.8353 45.0716 18.4138C45.2578 18.9927 45.3986 19.3681 45.494 19.54C45.7148 19.8971 46.001 20.0678 46.3527 20.0521C46.6897 20.037 47.043 19.889 47.4127 19.6082C47.7256 19.374 47.9363 19.1517 48.0448 18.9413C48.1021 18.9093 48.1539 18.7455 48.2 18.4498C48.2454 18.1395 48.3899 17.9128 48.6333 17.7698C48.7193 17.7219 48.821 17.6953 48.9382 17.69C49.2898 17.6743 49.6343 17.835 49.9717 18.1723C50.3231 18.4942 50.47 18.84 50.4124 19.2096ZM46.6312 11.6272C46.0451 11.6535 45.5868 12.0924 45.2562 12.9441C44.8203 14.0794 44.6694 15.1872 44.8037 16.2676C45.4829 16.017 46.0984 15.4756 46.65 14.6434C47.2016 13.8112 47.464 13.0801 47.4371 12.45C47.4126 11.8785 47.144 11.6042 46.6312 11.6272ZM59.9204 18.7837C59.827 19.3457 59.4568 19.9569 58.8097 20.6172C58.7141 20.783 58.3202 21.0135 57.6282 21.3088C56.8355 21.6526 56.1451 21.8156 55.5572 21.7979C54.4552 21.7739 53.5638 21.1825 52.883 20.0238C52.2646 18.9504 51.9213 17.6151 51.853 16.0179C51.7791 14.2888 52.0366 12.7578 52.6256 11.4248C53.2822 9.95657 54.2074 9.10765 55.4014 8.87799C55.6345 8.83818 55.861 8.81336 56.0808 8.80351C57.8244 8.72541 58.8298 9.75211 59.0971 11.8836C59.2269 12.8614 58.8844 13.9485 58.0694 15.1449C57.1861 16.4617 56.0229 17.4094 54.5796 17.9879C54.7658 18.5668 54.9067 18.9422 55.0021 19.1141C55.2229 19.4712 55.5091 19.6419 55.8607 19.6262C56.1977 19.6111 56.5511 19.4631 56.9207 19.1823C57.2337 18.9481 57.4444 18.7257 57.5528 18.5153C57.6102 18.4834 57.6619 18.3196 57.708 18.0239C57.7535 17.7136 57.8979 17.4869 58.1413 17.3438C58.2274 17.2959 58.329 17.2694 58.4462 17.2641C58.7979 17.2484 59.1424 17.4091 59.4798 17.7463C59.8312 18.0683 59.9781 18.414 59.9204 18.7837ZM56.1392 11.2013C55.5532 11.2275 55.0948 11.6665 54.7642 12.5181C54.3283 13.6535 54.1775 14.7613 54.3117 15.8417C54.991 15.5911 55.6064 15.0497 56.1581 14.2175C56.7097 13.3853 56.972 12.6541 56.9451 12.0241C56.9207 11.4526 56.6521 11.1783 56.1392 11.2013ZM68.755 10.7022C68.6378 10.7075 68.4528 10.6717 68.1999 10.595C67.9465 10.5036 67.7538 10.4608 67.6219 10.4667C67.5194 10.4713 67.4177 10.4979 67.317 10.5464L66.5217 11.0005L66.843 18.5176C66.8549 18.796 67.0167 19.1485 67.3286 19.5749C67.655 20.0008 67.7946 20.3469 67.7473 20.6132C67.6878 20.9389 67.479 21.2052 67.1208 21.4121C66.7773 21.6183 66.4004 21.7306 65.9902 21.749C65.2136 21.7838 64.6641 21.4634 64.3416 20.7878C64.245 20.5866 64.1658 19.9368 64.1042 18.8385C64.0582 18.1065 64.0167 16.9632 63.9796 15.4086C63.9338 13.6489 63.9008 12.5346 63.8808 12.0657C63.7941 12.099 63.652 12.2081 63.4544 12.3931C63.2561 12.5635 63.0545 12.6533 62.8493 12.6625C62.6882 12.6697 62.4812 12.6349 62.2283 12.5582C61.1876 12.2524 60.6595 11.9164 60.6438 11.5501C60.6401 11.4621 60.658 11.3659 60.6976 11.2614C60.7901 11.0223 60.9749 10.8819 61.2521 10.8401C61.6745 10.7625 61.9287 10.6997 62.0147 10.6518C62.3461 10.5048 62.948 10.1622 63.8205 9.62398L63.7388 7.71172C63.7325 7.56519 63.6804 7.37667 63.5825 7.14615C63.4986 6.90033 63.4541 6.7188 63.4491 6.60158C63.4434 6.4697 63.4748 6.3435 63.543 6.223C63.8989 5.6198 64.3992 5.30376 65.0439 5.27488C65.7911 5.24141 66.3311 5.51085 66.6639 6.0832C66.7911 6.3124 66.8579 6.50027 66.8641 6.6468C66.8716 6.82264 66.7916 7.00974 66.6239 7.20811C66.4562 7.40648 66.3758 7.58626 66.3827 7.74744L66.4287 8.82446C66.6874 8.69542 66.972 8.48447 67.2825 8.19162C67.5228 7.97532 67.7309 7.86323 67.9067 7.85535C67.9799 7.85207 68.0611 7.86311 68.1503 7.88848C69.084 8.09624 69.5694 8.63239 69.6063 9.49693C69.6182 9.77535 69.5416 10.043 69.3764 10.3C69.2259 10.5564 69.0187 10.6904 68.755 10.7022ZM85.206 4.90025L82.1979 17.9839C82.1858 18.0432 82.1812 18.1095 82.1844 18.1827C82.1888 18.2853 82.2112 18.4678 82.2518 18.7303C82.307 18.9921 82.3378 19.1962 82.3441 19.3428C82.3628 19.7824 82.246 20.1399 81.9935 20.4155C81.7564 20.7051 81.4546 20.8581 81.0883 20.8745C80.5462 20.8988 79.9406 20.6396 79.2715 20.097C78.6017 19.5398 78.2556 18.9974 78.233 18.4699C78.2293 18.3819 78.259 18.2191 78.3223 17.9814C78.3727 17.7883 78.3805 17.6264 78.3456 17.4958L75.3046 5.07952C75.2856 4.9776 75.1248 4.82331 74.8224 4.61663C74.5346 4.4093 74.3854 4.18109 74.3748 3.93198C74.3466 3.27258 74.9552 2.91499 76.2006 2.8592C76.7427 2.83492 77.2373 2.90085 77.6844 3.057C78.1461 3.21249 78.4349 3.4418 78.5506 3.74492C78.5836 3.83153 78.6021 3.9188 78.6058 4.00671C78.6114 4.13859 78.561 4.33171 78.4544 4.58607C78.3478 4.84043 78.3127 5.04754 78.3488 5.20741L80.2845 13.401L82.1505 4.50859C82.1741 4.3754 82.1822 4.22088 82.1747 4.04504C82.1716 3.97178 82.1675 3.87653 82.1625 3.75931C82.1568 3.62743 82.1528 3.53218 82.1503 3.47357C82.1309 3.01931 82.3206 2.65112 82.7196 2.36898C82.9765 2.19598 83.2954 2.10095 83.6763 2.08389C84.2624 2.05763 84.8187 2.19421 85.3453 2.49361C85.8713 2.77835 86.1434 3.1332 86.1615 3.55815C86.1665 3.67537 86.1429 3.80856 86.0905 3.95772C86.0376 4.09223 85.8826 4.24598 85.6258 4.41898C85.383 4.57667 85.243 4.73709 85.206 4.90025ZM93.5527 17.2771C93.4593 17.8392 93.0891 18.4504 92.442 19.1106C92.3463 19.2764 91.9525 19.5069 91.2605 19.8022C90.4678 20.146 89.7774 20.3091 89.1895 20.2914C88.0874 20.2673 87.196 19.676 86.5153 18.5173C85.8969 17.4439 85.5536 16.1086 85.4853 14.5114C85.4114 12.7823 85.6689 11.2512 86.2579 9.91819C86.9145 8.45001 87.8397 7.60109 89.0337 7.37143C89.2668 7.33162 89.4933 7.30679 89.7131 7.29695C91.4567 7.21885 92.4621 8.24555 92.7294 10.3771C92.8592 11.3549 92.5167 12.442 91.7017 13.6383C90.8184 14.9551 89.6552 15.9028 88.2119 16.4813C88.3981 17.0602 88.5389 17.4356 88.6344 17.6075C88.8552 17.9647 89.1414 18.1354 89.493 18.1196C89.83 18.1045 90.1833 17.9566 90.553 17.6757C90.866 17.4415 91.0767 17.2192 91.1851 17.0088C91.2425 16.9769 91.2942 16.813 91.3403 16.5173C91.3857 16.207 91.5302 15.9803 91.7736 15.8373C91.8597 15.7894 91.9613 15.7628 92.0785 15.7576C92.4302 15.7418 92.7747 15.9025 93.112 16.2398C93.4634 16.5617 93.6103 16.9075 93.5527 17.2771ZM89.7715 9.69473C89.1855 9.72099 88.7271 10.1599 88.3965 11.0116C87.9606 12.1469 87.8098 13.2547 87.944 14.3352C88.6233 14.0845 89.2387 13.5431 89.7903 12.7109C90.342 11.8787 90.6043 11.1476 90.5774 10.5175C90.553 9.94601 90.2844 9.67176 89.7715 9.69473ZM103.226 7.92486C103.181 8.23521 102.911 8.46015 102.418 8.59969C101.838 8.77248 101.472 8.95773 101.319 9.15544L97.9132 13.4481L98.056 16.7891C98.0697 17.1115 98.1717 17.4372 98.362 17.7664C98.5662 18.0802 98.6721 18.3251 98.6796 18.5009C98.6871 18.6767 98.6443 18.8769 98.5511 19.1012C98.3259 19.6692 97.8323 19.9703 97.0704 20.0044C96.5429 20.028 96.1181 19.8782 95.796 19.555C95.5815 19.3444 95.467 19.0706 95.4526 18.7335C95.4476 18.6163 95.4541 18.4252 95.4722 18.1601C95.4902 17.895 95.4958 17.6819 95.4889 17.5207L95.1375 9.30021C95.1319 9.16833 95.0664 9.00977 94.941 8.82452C94.8157 8.63928 94.7505 8.48805 94.7455 8.37082C94.7417 8.2829 94.7667 8.17902 94.8203 8.05916C94.9957 7.69895 95.5816 7.49653 96.5779 7.4519C97.3545 7.41712 97.8019 7.58059 97.9201 7.94233C97.9703 8.08689 97.9976 8.21046 98.002 8.31303C98.0089 8.47422 97.9556 8.6014 97.8421 8.69457C97.7287 8.78774 97.6738 8.87828 97.6776 8.9662L97.7554 9.75551L99.56 7.67067C99.7691 7.41172 99.9856 7.15244 100.209 6.89283C100.448 6.63257 100.728 6.48057 101.049 6.43682C101.545 6.37054 102.026 6.45911 102.491 6.70253C102.971 6.94528 103.221 7.27913 103.239 7.70408C103.242 7.77734 103.238 7.85094 103.226 7.92486ZM119.72 18.4173C119.553 18.968 119.132 19.2584 118.458 19.2886C117.608 19.3267 116.965 19.0618 116.53 18.4941C116.297 18.1815 116.139 17.0801 116.059 15.1899C116.047 14.9115 116.03 14.5231 116.009 14.0249C116.002 13.5114 115.994 13.1521 115.985 12.9469C115.941 11.9212 115.867 11.396 115.763 11.3713C115.54 11.2932 114.88 13.3781 113.785 17.6261C113.785 17.6407 113.771 17.9937 113.742 18.685C113.731 19.1113 113.596 19.4036 113.339 19.5619C113.153 19.6731 112.943 19.7339 112.708 19.7444C112.283 19.7634 111.867 19.6426 111.459 19.3819C111.052 19.1212 110.789 18.8026 110.67 18.4262C110.5 17.8906 110.389 16.8239 110.335 15.226C110.265 12.8949 110.231 11.7732 110.235 11.8611C110.194 11.2464 110.137 10.9333 110.063 10.9219C109.75 11.4938 109.48 12.0418 109.252 12.5658C108.704 13.8236 108.404 14.8648 108.351 15.6893C108.285 15.8684 108.293 16.2131 108.373 16.7233C108.451 17.1603 108.397 17.4636 108.214 17.6334C108.03 17.8031 107.777 17.8952 107.455 17.9096C107.103 17.9254 106.74 17.8462 106.366 17.6721C106.005 17.4827 105.739 17.2671 105.567 17.0252C105.317 16.6694 105.14 15.6056 105.035 13.8338C104.961 12.1047 104.887 10.3757 104.813 8.64657C104.792 8.50069 104.725 8.29817 104.611 8.03901C104.497 7.77984 104.437 7.58432 104.432 7.45244C104.426 7.32056 104.457 7.19437 104.526 7.07386C104.704 6.77226 105.181 6.60407 105.957 6.56928C106.91 6.52662 107.491 6.73548 107.702 7.19585C107.75 7.29646 107.776 7.39804 107.781 7.50062C107.786 7.6325 107.721 7.82627 107.585 8.08194C107.464 8.33695 107.407 8.54505 107.414 8.70624L107.521 11.212C107.921 10.2691 108.45 9.07092 109.107 7.61739C109.187 7.42296 109.259 7.22885 109.324 7.03508C109.404 6.84065 109.521 6.66656 109.676 6.5128C109.831 6.35905 110.099 6.27364 110.48 6.25658C111.066 6.23032 111.658 6.33595 112.255 6.57346C112.867 6.81031 113.188 7.11157 113.219 7.47724C113.25 7.85757 113.204 8.15326 113.081 8.36432C112.971 8.56006 112.92 8.72387 112.925 8.85575L113.084 13.6054C113.296 13.0674 113.668 11.8028 114.199 9.8117C114.619 8.2954 114.95 7.44376 115.191 7.25676C115.503 7.00787 115.975 6.86931 116.605 6.84109C117.777 6.78858 118.399 7.09837 118.472 7.77045C118.534 9.55881 118.662 12.5481 118.855 16.7383C118.862 16.8995 119.017 17.0907 119.32 17.312C119.623 17.5187 119.779 17.7466 119.79 17.9957C119.795 18.1129 119.772 18.2534 119.72 18.4173ZM130.879 16.9925C130.69 17.7203 130.163 18.1036 129.298 18.1423C129.005 18.1555 128.769 18.1147 128.589 18.02C128.347 17.8693 128.172 17.5541 128.064 17.0745C127.852 16.2472 127.649 15.603 127.453 15.1419C127.443 15.9498 127.039 16.7901 126.239 17.6628C125.439 18.5208 124.614 18.9688 123.764 19.0069C122.695 19.0548 121.924 18.3772 121.453 16.9742C121.284 16.4533 121.19 15.9583 121.17 15.4894C121.112 14.1267 121.758 12.9306 123.108 11.9011C124.222 11.1759 125.344 10.4576 126.473 9.74636C126.521 9.49463 126.54 9.25154 126.53 9.01709C126.511 8.56283 126.375 8.30465 126.123 8.24255C125.87 8.16578 125.656 8.13134 125.48 8.13922C125.172 8.153 124.92 8.26706 124.724 8.48139C124.541 8.68042 124.366 8.87179 124.198 9.05551C124.027 9.18061 123.811 9.46187 123.551 9.89928C123.346 10.2462 123.112 10.4401 122.849 10.4813C122.47 10.5423 122.12 10.4258 121.8 10.1319C121.479 9.83797 121.31 9.48585 121.292 9.07556C121.282 8.84111 121.332 8.62601 121.441 8.43027C121.754 7.85834 122.239 7.35214 122.895 6.91166C123.894 6.25028 125.163 5.88513 126.702 5.81621C127.683 5.77224 128.378 6.21095 128.784 7.13235C129.045 7.75194 129.271 8.92366 129.463 10.6475C129.684 12.737 129.911 14.2611 130.142 15.2196C130.18 15.4088 130.315 15.645 130.547 15.9282C130.779 16.2115 130.9 16.463 130.91 16.6828C130.914 16.7853 130.904 16.8886 130.879 16.9925ZM126.824 11.7567C126.394 12.0108 125.965 12.2723 125.536 12.5411C125.122 12.8093 124.74 13.1567 124.391 13.5834C123.89 14.2078 123.648 14.7325 123.666 15.1574C123.681 15.5091 123.828 15.8695 124.108 16.2387C124.264 16.4373 124.429 16.5326 124.605 16.5247C124.986 16.5077 125.378 16.0644 125.781 15.1948C126.199 14.3245 126.547 13.1785 126.824 11.7567Z" fill="#5100FF"/>
</svg>
