<svg width="215" height="50" viewBox="0 0 215 50" fill="none" xmlns="http://www.w3.org/2000/svg">
<path d="M17.2742 13.6701C17.5663 14.133 17.7216 14.5201 17.7402 14.8316L17.3862 16.1519C17.5237 18.8605 17.6485 21.558 17.7607 24.2442C17.7944 29.2436 17.3856 33.2724 16.5342 36.3306C15.3427 40.54 13.3499 42.803 10.5558 43.1197C7.28407 43.4899 4.78434 41.0833 3.05664 35.8999C1.85872 32.343 1.09614 27.8214 0.76889 22.3351C0.648851 20.3227 0.607445 18.8224 0.644672 17.8342C0.360827 17.1063 0.2039 16.4908 0.17389 15.9877C0.128161 15.2211 0.329836 14.5714 0.778914 14.0388C1.07032 13.6841 1.59929 13.4832 2.36583 13.4359C3.30005 13.3782 4.15132 13.5421 4.91963 13.9275C5.812 14.3774 6.30572 14.9962 6.40078 15.7838C6.44903 16.1896 6.34301 16.629 6.0827 17.1019C5.84636 17.5733 5.76143 17.9633 5.82791 18.2718C5.75067 18.5892 5.9079 20.4189 6.2996 23.7612C6.76351 27.5077 7.26283 30.6389 7.79758 33.1547C8.49926 36.4537 9.1608 38.0721 9.78218 38.0097C10.8573 37.8952 11.6055 35.3243 12.0269 30.2968C12.3632 26.2604 12.4291 22.5293 12.2248 19.1034C12.1848 18.4326 12.1322 17.9549 12.0672 17.6704C12.0965 17.356 11.8897 16.9119 11.4467 16.3381C11.0038 15.7642 10.7702 15.2737 10.7459 14.8664C10.7201 14.4352 10.8614 13.9816 11.1696 13.5058C11.6298 12.756 12.5306 12.3397 13.872 12.2569C15.5009 12.1564 16.635 12.6275 17.2742 13.6701ZM34.9722 21.1983C35.0444 21.6026 34.8277 22.0007 34.3222 22.3926C33.68 22.9131 33.2942 23.2976 33.1648 23.5461L29.493 30.9142L33.3412 37.3854C33.3934 37.4544 33.667 37.8102 34.1622 38.4529C34.4739 38.8424 34.6398 39.2049 34.6598 39.5403C34.6712 39.732 34.6467 39.9258 34.5863 40.1219C34.2405 41.1772 33.5167 41.7389 32.4148 41.8069C31.9597 41.835 31.5108 41.7665 31.0682 41.6014C30.4536 41.3749 30.0975 41.0482 29.9999 40.6214C29.9277 40.217 29.8555 39.8127 29.7833 39.4084L27.5558 34.7127L25.6571 39.1581C25.542 39.6461 25.4029 40.1356 25.2398 40.6266C25.0753 41.0936 24.7176 41.3441 24.1666 41.3781C23.472 41.421 22.787 41.2228 22.1116 40.7835C21.3841 40.2754 21.0482 39.6829 21.104 39.0062C21.1362 38.7397 21.2754 38.4546 21.5218 38.1509C21.7907 37.8217 21.9568 37.583 22.02 37.4348L24.8391 31.4899L22.1954 24.6558C22.1093 24.4206 21.8526 24.1479 21.4254 23.8377C21.0207 23.502 20.7851 23.1799 20.7186 22.8714C20.6139 22.3248 20.9199 21.813 21.6368 21.3359C22.2861 20.9351 22.994 20.7111 23.7605 20.6638C24.1917 20.6372 24.5314 20.6884 24.7795 20.8174C25.3265 21.1202 25.6756 21.5315 25.8268 22.0512C25.9766 22.5469 26.1144 23.0434 26.2402 23.5405L27.5197 26.852L29.6382 22.4652C29.8266 21.9967 30.0263 21.5155 30.2373 21.0216C30.4722 20.5262 30.8003 20.1813 31.2214 19.987C31.4778 19.8509 31.7737 19.7726 32.109 19.7519C32.7318 19.7134 33.3414 19.8562 33.9378 20.1801C34.5566 20.4785 34.9014 20.8179 34.9722 21.1983ZM53.8012 12.5341C53.8183 12.8216 53.6002 13.1958 53.1468 13.6566C52.6005 14.1712 52.2641 14.5767 52.1375 14.873L42.3224 36.5427C42.1929 36.7911 41.9646 37.5987 41.6374 38.9654C41.4014 39.8457 41.1059 40.3328 40.7509 40.4268C40.1831 40.5821 39.4411 40.4355 38.5247 39.9871C37.5083 39.4727 36.9765 38.8202 36.9294 38.0297C36.9304 37.6449 37.0753 37.2512 37.3638 36.8487C37.7861 36.2695 38.0296 35.9179 38.0943 35.7937L48.627 12.8534C48.7128 12.6798 48.816 12.1925 48.9365 11.3916C49.0459 10.8077 49.2746 10.4089 49.6225 10.1951C49.8549 10.0605 50.1268 9.9836 50.4382 9.96438C51.1808 9.91856 51.9151 10.1377 52.6412 10.6219C53.3956 11.1765 53.7822 11.8139 53.8012 12.5341ZM72.2945 10.2748C72.5866 10.7377 72.7419 11.1248 72.7605 11.4363L72.4065 12.7566C72.544 15.4653 72.6689 18.1627 72.781 20.8489C72.8148 25.8483 72.4059 29.8771 71.5545 32.9353C70.363 37.1447 68.3703 39.4077 65.5762 39.7244C62.3044 40.0947 59.8047 37.6881 58.077 32.5046C56.8791 28.9477 56.1165 24.4261 55.7892 18.9398C55.6692 16.9274 55.6278 15.4271 55.665 14.4389C55.3812 13.711 55.2242 13.0955 55.1942 12.5924C55.1485 11.8258 55.3502 11.1761 55.7993 10.6435C56.0907 10.2888 56.6196 10.0879 57.3862 10.0406C58.3204 9.98293 59.1717 10.1468 59.94 10.5322C60.8323 10.9821 61.3261 11.6009 61.4211 12.3885C61.4694 12.7943 61.3633 13.2337 61.103 13.7066C60.8667 14.1781 60.7818 14.568 60.8482 14.8765C60.771 15.1939 60.9282 17.0237 61.3199 20.3659C61.7838 24.1124 62.2832 27.2436 62.8179 29.7594C63.5196 33.0585 64.1811 34.6768 64.8025 34.6144C65.8776 34.5 66.6259 31.929 67.0472 26.9015C67.3835 22.8651 67.4495 19.134 67.2451 15.7081C67.2051 15.0373 67.1526 14.5596 67.0875 14.2751C67.1168 13.9607 66.91 13.5166 66.4671 12.9428C66.0241 12.369 65.7905 11.8784 65.7662 11.4711C65.7405 11.0399 65.8817 10.5864 66.1899 10.1105C66.6501 9.3607 67.5509 8.94443 68.8924 8.86165C70.5213 8.76113 71.6553 9.23218 72.2945 10.2748ZM80.7219 10.44C80.7981 10.5075 80.8412 10.625 80.8512 10.7927C80.864 11.0084 80.8143 11.3841 80.702 11.9201C80.5729 12.5773 80.4916 13.0271 80.4579 13.2697C80.4243 13.5122 80.4797 14.0378 80.6241 14.8464C80.6541 15.3495 80.5184 15.6945 80.217 15.8814C79.9382 16.0429 79.5712 16.1377 79.116 16.1658C78.4692 16.2057 77.8026 16.1146 77.1162 15.8925C76.2817 15.6073 75.8481 15.1892 75.8152 14.6382C75.8052 14.4705 75.8635 14.2385 75.9901 13.9421C76.1152 13.6218 76.1841 13.3651 76.1966 13.1719C76.2331 12.9773 76.2045 12.4982 76.1108 11.7345C76.0272 11.1385 76.1227 10.7238 76.3973 10.4905C76.7634 10.1794 77.4375 9.99348 78.4197 9.93287C79.4976 9.86635 80.265 10.0354 80.7219 10.44ZM81.7121 19.1796C81.7321 19.515 81.5719 20.0539 81.2315 20.7963C80.9136 21.5132 80.7682 22.0993 80.7954 22.5545L81.4256 33.1197C81.4542 33.5988 81.6267 34.2735 81.943 35.1437C82.258 35.9899 82.4255 36.5807 82.4455 36.9161C82.474 37.3952 82.3038 37.7664 81.9349 38.0296C81.3589 38.4499 80.7235 38.6815 80.0288 38.7244C79.1186 38.7805 78.4532 38.509 78.0328 37.9098C77.484 37.1742 77.096 34.9018 76.8688 31.0925C76.8145 30.1821 76.7422 28.7679 76.6518 26.8498C76.584 24.9063 76.5236 23.4914 76.4707 22.6049C76.4507 22.2695 76.3891 21.8405 76.2858 21.3179C76.181 20.7713 76.1215 20.3782 76.1072 20.1387C76.0601 19.3481 76.3068 18.6475 76.8474 18.0371C77.0727 17.7827 77.5087 17.6356 78.1555 17.5957C78.8022 17.5558 79.4554 17.6237 80.1151 17.7994C80.7733 17.9511 81.1941 18.1536 81.3775 18.4068C81.5848 18.6585 81.6964 18.9161 81.7121 19.1796ZM107.96 12.2939C108.151 13.8931 107.768 16.7421 106.81 20.8409C105.798 25.2316 104.58 28.9977 103.157 32.1394C101.432 35.8767 99.7675 37.7948 98.1626 37.8939C97.3481 37.9441 96.5362 37.6336 95.7268 36.9621C94.9413 36.2892 94.5257 35.5695 94.48 34.8028C94.4586 34.4435 94.5471 34.1134 94.7455 33.8126C93.7463 23.5106 93.1839 16.5 93.0582 12.7806C92.5066 11.9971 92.2186 11.4017 92.1943 10.9945C92.16 10.4195 92.4534 9.89643 93.0744 9.42528C93.625 8.98253 94.2118 8.74194 94.8346 8.7035C95.4095 8.66802 95.8986 8.80616 96.3018 9.11791C99.343 7.70392 101.379 6.96514 102.409 6.90157C102.96 6.86758 103.506 6.96608 104.049 7.19709C104.863 7.53163 105.657 8.15587 106.433 9.06982C107.313 10.1216 107.822 11.1963 107.96 12.2939ZM103.009 11.5174C102.752 11.2447 102.432 11.1201 102.049 11.1438C101.306 11.1896 99.8963 12.1423 97.8193 14.0017C97.7828 15.8074 97.8295 17.8003 97.9596 19.9804C98.1454 23.0949 98.4806 26.2963 98.9652 29.5847C100.05 26.4158 101.031 23.0972 101.906 19.6287C102.837 15.8923 103.266 13.4131 103.193 12.1913C103.173 11.8559 103.112 11.6313 103.009 11.5174ZM122.815 31.1066C122.677 32.0288 122.089 33.039 121.048 34.1372C120.896 34.4111 120.258 34.7991 119.134 35.3013C117.847 35.8857 116.722 36.1715 115.759 36.1588C113.955 36.1499 112.481 35.2069 111.335 33.3299C110.293 31.5908 109.695 29.4155 109.539 26.8041C109.37 23.9772 109.75 21.4651 110.676 19.2678C111.71 16.8475 113.201 15.4331 115.148 15.0244C115.528 14.9528 115.898 14.9059 116.257 14.8837C119.108 14.7078 120.781 16.3599 121.277 19.84C121.517 21.4362 120.986 23.2243 119.686 25.2041C118.277 27.383 116.4 28.9657 114.055 29.952C114.375 30.894 114.616 31.5044 114.777 31.783C115.148 32.3612 115.621 32.6326 116.196 32.5971C116.747 32.5631 117.321 32.3113 117.918 31.8416C118.423 31.4497 118.762 31.0802 118.934 30.733C119.027 30.6791 119.107 30.4097 119.174 29.9246C119.24 29.4156 119.47 29.0407 119.864 28.8C120.004 28.7192 120.169 28.673 120.361 28.6611C120.936 28.6256 121.504 28.8791 122.065 29.4216C122.649 29.9386 122.899 30.5003 122.815 31.1066ZM116.419 18.8052C115.461 18.8643 114.723 19.5952 114.206 20.9977C113.524 22.8673 113.308 24.684 113.557 26.448C114.661 26.0192 115.653 25.1163 116.533 23.7396C117.413 22.3628 117.822 21.1593 117.76 20.1291C117.704 19.1948 117.257 18.7535 116.419 18.8052ZM137.846 29.1331C137.946 30.8101 137.433 32.2845 136.307 33.5563C135.179 34.8041 133.801 35.4783 132.172 35.5788C131.142 35.6423 130.046 35.217 128.886 34.3027C127.976 33.5654 127.14 32.6431 126.377 31.536C125.718 30.5668 125.416 29.9482 125.473 29.6802C125.7 29.065 126.509 28.7146 127.898 28.6288C128.473 28.5933 128.933 28.6491 129.279 28.7961C129.872 29.0721 130.219 29.4474 130.32 29.9221C130.424 30.4687 130.565 30.8087 130.741 30.9421C131.29 31.6777 131.768 32.0329 132.175 32.0078C132.486 31.9886 132.762 31.7672 133.001 31.3437C133.263 30.8947 133.376 30.3827 133.342 29.8078C133.321 29.4484 133.239 29.0927 133.098 28.7408C132.957 28.3888 132.277 27.8777 131.059 27.2074C129.593 26.4082 128.54 25.6917 127.902 25.0578C126.803 23.9714 126.208 22.6616 126.116 21.1283C126.009 19.3315 126.443 17.7298 127.417 16.3231C128.389 14.8925 129.69 14.127 131.319 14.0264C132.996 13.923 134.315 14.4788 135.277 15.6938C136.057 16.6796 136.419 17.7033 136.362 18.7648C136.643 19.036 136.803 19.5071 136.843 20.1779C136.886 20.8966 136.659 21.5238 136.162 22.0594C135.665 22.595 135.141 22.8798 134.59 22.9138C133.775 22.9641 133.037 22.4687 132.373 21.4275C132.189 21.1504 132.082 20.7722 132.053 20.2931C132.04 20.0775 132.035 19.7773 132.036 19.3925C132.059 18.9822 132.066 18.6933 132.056 18.5256C132.019 17.9027 131.773 17.6053 131.318 17.6334C130.623 17.6762 130.316 18.3804 130.398 19.746C130.481 21.1355 131.002 22.2215 131.963 23.0038C132.342 23.317 133.149 23.7482 134.384 24.2971C135.445 24.7606 136.208 25.2546 136.672 25.779C137.369 26.5776 137.76 27.6956 137.846 29.1331ZM144.83 6.48392C144.907 6.55136 144.95 6.66893 144.96 6.83663C144.973 7.05225 144.923 7.42802 144.811 7.96395C144.681 8.62115 144.6 9.07101 144.566 9.31354C144.533 9.55607 144.588 10.0817 144.733 10.8903C144.763 11.3934 144.627 11.7384 144.326 11.9253C144.047 12.0868 143.68 12.1816 143.225 12.2097C142.578 12.2496 141.911 12.1585 141.225 11.9363C140.39 11.6512 139.957 11.2331 139.924 10.6821C139.914 10.5144 139.972 10.2824 140.099 9.98601C140.224 9.66569 140.293 9.40897 140.305 9.21583C140.342 9.02121 140.313 8.54206 140.219 7.77838C140.136 7.1824 140.231 6.76774 140.506 6.53438C140.872 6.22324 141.546 6.03737 142.528 5.97676C143.606 5.91024 144.374 6.07929 144.83 6.48392ZM145.821 15.2235C145.841 15.5589 145.68 16.0978 145.34 16.8402C145.022 17.5571 144.877 18.1432 144.904 18.5984L145.534 29.1636C145.563 29.6427 145.735 30.3174 146.052 31.1876C146.366 32.0338 146.534 32.6246 146.554 32.96C146.583 33.4391 146.412 33.8103 146.043 34.0735C145.467 34.4938 144.832 34.7254 144.137 34.7682C143.227 34.8244 142.562 34.5529 142.141 33.9536C141.593 33.2181 141.205 30.9456 140.977 27.1364C140.923 26.226 140.851 24.8118 140.76 22.8937C140.692 20.9502 140.632 19.5353 140.579 18.6488C140.559 18.3134 140.498 17.8844 140.394 17.3618C140.29 16.8152 140.23 16.4221 140.216 16.1825C140.169 15.3919 140.415 14.6914 140.956 14.081C141.181 13.8266 141.617 13.6795 142.264 13.6396C142.911 13.5997 143.564 13.6675 144.224 13.8433C144.882 13.995 145.303 14.1975 145.486 14.4507C145.693 14.7024 145.805 14.96 145.821 15.2235ZM160.771 13.3992C160.942 15.4566 161.252 18.8399 161.701 23.5492C161.995 26.8734 162.185 29.2542 162.271 30.6916C162.46 33.854 162.337 36.0257 161.902 37.2067C161.468 38.3877 160.488 39.0854 158.962 39.2998C157.055 39.5857 155.337 39.1868 153.805 38.1031C153.074 37.9318 152.609 37.7922 152.41 37.6843C151.988 37.4698 151.701 37.0788 151.547 36.5112C151.264 35.3985 152.117 34.7808 154.105 34.6581C154.608 34.6271 155.09 34.6574 155.553 34.7491C155.892 34.8003 156.28 35.0529 156.716 35.5069C157.153 35.9849 157.552 36.2248 157.913 36.2265C158.61 36.2316 158.899 35.2279 158.779 33.2155C158.728 32.353 158.584 30.9552 158.349 29.022C157.573 30.5367 157.007 31.5214 156.65 31.9763C155.908 32.8396 155.01 33.3038 153.956 33.3689C152.471 33.4605 151.211 32.5043 150.178 30.5001C149.227 28.6592 148.67 26.3851 148.509 23.678C148.343 20.8989 148.646 18.5237 149.418 16.5524C150.296 14.3342 151.619 13.1464 153.389 12.9891C154.346 12.906 155.064 13.0541 155.543 13.4333C156.023 13.8124 156.491 14.2044 156.948 14.609C156.585 13.7657 156.618 13.1144 157.048 12.6551C157.296 12.3753 157.683 12.2192 158.21 12.1867C158.713 12.1556 159.224 12.2563 159.743 12.4888C160.261 12.7213 160.604 13.0248 160.771 13.3992ZM157.006 22.829C157.018 21.4336 156.772 20.1263 156.267 18.9071C155.705 17.5471 155.04 16.8908 154.274 16.9381C153.651 16.9765 153.142 17.7053 152.745 19.1244C152.389 20.3968 152.228 21.7292 152.263 23.1217C152.302 24.5861 152.488 25.8971 152.822 27.0547C153.24 28.4236 153.749 29.0895 154.347 29.0525C154.874 29.02 155.445 28.3115 156.06 26.927C156.673 25.5186 156.988 24.1526 157.006 22.829ZM181.683 28.9527C181.667 29.4827 181.347 29.9593 180.723 30.3825C180.097 30.7818 179.389 31.0058 178.599 31.0546C177.425 31.1271 176.601 30.8052 176.125 30.0892C175.877 22.6985 175.438 18.9744 174.809 18.917C174.205 18.8581 172.941 22.2544 171.017 29.1059C171.06 29.8246 171.103 30.5433 171.146 31.2621C171.174 32.126 170.97 32.7517 170.537 33.1392C170.127 33.5251 169.671 33.7336 169.168 33.7647C168.305 33.8179 167.355 33.4076 166.317 32.5339C166.015 32.3121 165.751 30.5009 165.524 27.1004C165.673 29.1832 165.454 25.3134 164.868 15.4908C164.855 15.2752 164.814 14.9892 164.745 14.6328C164.674 14.2525 164.633 13.9784 164.623 13.8107C164.596 13.3555 164.692 12.9528 164.912 12.6027C165.174 12.1537 165.616 11.91 166.239 11.8715C166.886 11.8316 167.568 11.9939 168.287 12.3583C169.029 12.6973 169.482 13.042 169.647 13.3925C169.757 13.6261 169.82 13.8628 169.834 14.1023C169.848 14.3419 169.772 14.6832 169.607 15.1263C169.441 15.5693 169.366 15.9346 169.383 16.2221L169.679 21.1813C170.997 17.8779 172.008 15.6874 172.713 14.61C173.973 12.7528 175.469 11.831 177.201 11.8443C178.235 11.8526 179.023 12.7658 179.564 14.584C179.982 15.9528 180.285 18.002 180.472 20.7317C180.6 22.8879 180.729 25.044 180.857 27.2002C180.915 27.365 181.101 27.6541 181.414 28.0676C181.596 28.2968 181.686 28.5918 181.683 28.9527ZM196.959 26.5312C196.822 27.4534 196.233 28.4636 195.192 29.5618C195.04 29.8357 194.402 30.2237 193.278 30.7259C191.991 31.3103 190.866 31.5961 189.903 31.5834C188.1 31.5745 186.625 30.6315 185.479 28.7545C184.438 27.0154 183.839 24.8401 183.683 22.2287C183.515 19.4018 183.894 16.8896 184.82 14.6924C185.854 12.2721 187.345 10.8577 189.292 10.449C189.672 10.3774 190.042 10.3305 190.401 10.3083C193.252 10.1324 194.925 11.7845 195.421 15.2645C195.661 16.8608 195.13 18.6489 193.83 20.6287C192.421 22.8076 190.544 24.3903 188.199 25.3766C188.519 26.3186 188.76 26.929 188.921 27.2076C189.292 27.7858 189.765 28.0572 190.34 28.0217C190.891 27.9877 191.465 27.7359 192.062 27.2662C192.568 26.8743 192.906 26.5048 193.078 26.1576C193.171 26.1037 193.251 25.8343 193.318 25.3492C193.384 24.8402 193.614 24.4653 194.008 24.2246C194.148 24.1438 194.313 24.0975 194.505 24.0857C195.08 24.0502 195.648 24.3037 196.209 24.8462C196.793 25.3632 197.043 25.9249 196.959 26.5312ZM190.563 14.2298C189.605 14.2889 188.867 15.0198 188.35 16.4223C187.668 18.2918 187.452 20.1086 187.701 21.8726C188.806 21.4438 189.798 20.5409 190.677 19.1642C191.557 17.7874 191.966 16.5839 191.904 15.5537C191.849 14.6194 191.402 14.1781 190.563 14.2298ZM212.528 10.9628C212.462 11.4718 212.028 11.8472 211.225 12.0892C210.281 12.3879 209.686 12.7011 209.441 13.0288L203.988 20.1462L204.313 25.6085C204.345 26.1355 204.521 26.6657 204.841 27.199C205.184 27.7068 205.364 28.1045 205.381 28.392C205.398 28.6795 205.334 29.0081 205.187 29.3778C204.834 30.3133 204.035 30.8195 202.789 30.8964C201.927 30.9496 201.228 30.7162 200.692 30.1962C200.335 29.8576 200.14 29.4127 200.108 28.8617C200.096 28.67 200.102 28.3571 200.124 27.9229C200.146 27.4887 200.149 27.1399 200.133 26.8763L199.332 13.4362C199.319 13.2206 199.207 12.963 198.997 12.6634C198.787 12.3638 198.676 12.1181 198.665 11.9265C198.656 11.7827 198.694 11.6121 198.778 11.4145C199.055 10.8203 200.008 10.4729 201.637 10.3724C202.907 10.2941 203.643 10.5492 203.847 11.1378C203.933 11.3729 203.981 11.5743 203.991 11.742C204.007 12.0056 203.923 12.2151 203.74 12.3707C203.557 12.5263 203.47 12.6759 203.478 12.8197L203.627 14.1089L206.522 10.648C206.857 10.2186 207.204 9.78841 207.563 9.35748C207.946 8.92508 208.4 8.66866 208.924 8.58822C209.734 8.46609 210.523 8.59773 211.292 8.98314C212.084 9.36707 212.501 9.90641 212.542 10.6012C212.549 10.721 212.545 10.8415 212.528 10.9628Z" fill="#5100FF"/>
</svg>
